<svg width="164" height="164" viewBox="0 0 164 164" fill="none" xmlns="http://www.w3.org/2000/svg">
<path d="M35.7948 84.7125C30.6698 87.7875 24.5198 85.7375 21.4448 81.6375C18.3698 77.5375 20.4198 70.3625 25.5448 67.2875L76.7948 36.5375C79.8698 34.4875 83.9698 34.4875 87.0448 36.5375L138.295 67.2875C143.42 70.3625 144.445 76.5125 141.37 81.6375C138.295 86.7625 132.145 87.7875 127.02 84.7125L81.9198 57.0375L35.7948 84.7125Z" fill="#FF5630"/>
<path d="M35.7948 127.95C30.6698 131.025 24.5198 128.975 21.4448 124.875C18.3698 120.775 20.4198 113.6 25.5448 110.525L76.7948 79.775C79.8698 77.725 83.9698 77.725 87.0448 79.775L138.295 110.525C143.42 113.6 144.445 119.75 141.37 124.875C138.295 130 132.145 131.025 127.02 127.95L81.9198 100.275L35.7948 127.95Z" fill="#FF5630"/>
</svg>
