<svg width="164" height="164" viewBox="0 0 164 164" fill="none" xmlns="http://www.w3.org/2000/svg">
<path d="M127.254 79.525C132.379 76.45 138.529 78.5 141.604 83.625C144.679 88.75 142.629 94.9 138.529 96.95L87.2791 127.7C84.2041 129.75 80.1041 129.75 77.0291 127.7L25.7791 96.95C19.6291 94.9 18.6041 87.725 21.6791 83.625C23.7291 78.5 30.9041 76.45 35.0041 79.525L81.1291 107.2L127.254 79.525Z" fill="#0065FF"/>
<path d="M127.254 36.4448C132.379 33.3698 138.529 35.4198 141.604 40.5448C144.679 45.6698 142.629 51.8198 138.529 53.8698L87.2791 84.6198C84.2041 86.6698 80.1041 86.6698 77.0291 84.6198L25.7791 53.8698C19.6291 51.8198 18.6041 44.6448 21.6791 40.5448C23.7291 35.4198 30.9041 33.3698 35.0041 36.4448L81.1291 64.1198L127.254 36.4448Z" fill="#0065FF"/>
</svg>
