<svg width="866" height="595" viewBox="0 0 866 595" fill="none" xmlns="http://www.w3.org/2000/svg">
<g clip-path="url(#clip0_154_17)">
<path d="M433.937 265.45V256.723H436.886C437.57 256.723 438.13 256.846 438.565 257.093C439.002 257.338 439.326 257.669 439.536 258.086C439.746 258.504 439.851 258.97 439.851 259.484C439.851 259.998 439.746 260.466 439.536 260.886C439.329 261.307 439.008 261.642 438.573 261.892C438.138 262.139 437.582 262.263 436.903 262.263H434.789V261.325H436.869C437.337 261.325 437.714 261.244 437.998 261.082C438.282 260.92 438.488 260.701 438.616 260.426C438.746 260.147 438.812 259.834 438.812 259.484C438.812 259.135 438.746 258.822 438.616 258.547C438.488 258.271 438.28 258.055 437.994 257.899C437.707 257.74 437.326 257.66 436.851 257.66H434.994V265.45H433.937ZM444.006 265.586C443.415 265.586 442.897 265.446 442.451 265.165C442.008 264.883 441.661 264.49 441.411 263.984C441.164 263.478 441.04 262.888 441.04 262.211C441.04 261.53 441.164 260.934 441.411 260.426C441.661 259.917 442.008 259.522 442.451 259.241C442.897 258.96 443.415 258.819 444.006 258.819C444.597 258.819 445.114 258.96 445.557 259.241C446.003 259.522 446.35 259.917 446.597 260.426C446.847 260.934 446.972 261.53 446.972 262.211C446.972 262.888 446.847 263.478 446.597 263.984C446.35 264.49 446.003 264.883 445.557 265.165C445.114 265.446 444.597 265.586 444.006 265.586ZM444.006 264.683C444.455 264.683 444.824 264.568 445.114 264.338C445.404 264.108 445.619 263.805 445.758 263.43C445.897 263.055 445.967 262.649 445.967 262.211C445.967 261.774 445.897 261.366 445.758 260.988C445.619 260.611 445.404 260.305 445.114 260.072C444.824 259.839 444.455 259.723 444.006 259.723C443.557 259.723 443.188 259.839 442.898 260.072C442.609 260.305 442.394 260.611 442.255 260.988C442.116 261.366 442.046 261.774 442.046 262.211C442.046 262.649 442.116 263.055 442.255 263.43C442.394 263.805 442.609 264.108 442.898 264.338C443.188 264.568 443.557 264.683 444.006 264.683ZM448.507 265.45V258.905H449.479V259.927H449.564C449.701 259.578 449.921 259.307 450.225 259.113C450.529 258.917 450.894 258.819 451.32 258.819C451.752 258.819 452.111 258.917 452.398 259.113C452.688 259.307 452.914 259.578 453.076 259.927H453.144C453.311 259.589 453.563 259.321 453.898 259.122C454.233 258.92 454.635 258.819 455.104 258.819C455.689 258.819 456.168 259.003 456.54 259.369C456.912 259.733 457.098 260.299 457.098 261.069V265.45H456.093V261.069C456.093 260.586 455.96 260.241 455.696 260.034C455.432 259.826 455.121 259.723 454.763 259.723C454.303 259.723 453.946 259.862 453.693 260.14C453.441 260.416 453.314 260.765 453.314 261.189V265.45H452.291V260.967C452.291 260.595 452.171 260.295 451.929 260.068C451.688 259.838 451.377 259.723 450.996 259.723C450.735 259.723 450.49 259.792 450.263 259.932C450.039 260.071 449.857 260.264 449.718 260.511C449.581 260.755 449.513 261.038 449.513 261.359V265.45H448.507ZM461.596 265.586C461.005 265.586 460.487 265.446 460.041 265.165C459.598 264.883 459.251 264.49 459.001 263.984C458.754 263.478 458.63 262.888 458.63 262.211C458.63 261.53 458.754 260.934 459.001 260.426C459.251 259.917 459.598 259.522 460.041 259.241C460.487 258.96 461.005 258.819 461.596 258.819C462.187 258.819 462.704 258.96 463.147 259.241C463.593 259.522 463.94 259.917 464.187 260.426C464.437 260.934 464.562 261.53 464.562 262.211C464.562 262.888 464.437 263.478 464.187 263.984C463.94 264.49 463.593 264.883 463.147 265.165C462.704 265.446 462.187 265.586 461.596 265.586ZM461.596 264.683C462.045 264.683 462.414 264.568 462.704 264.338C462.994 264.108 463.208 263.805 463.348 263.43C463.487 263.055 463.556 262.649 463.556 262.211C463.556 261.774 463.487 261.366 463.348 260.988C463.208 260.611 462.994 260.305 462.704 260.072C462.414 259.839 462.045 259.723 461.596 259.723C461.147 259.723 460.778 259.839 460.488 260.072C460.198 260.305 459.984 260.611 459.845 260.988C459.706 261.366 459.636 261.774 459.636 262.211C459.636 262.649 459.706 263.055 459.845 263.43C459.984 263.805 460.198 264.108 460.488 264.338C460.778 264.568 461.147 264.683 461.596 264.683ZM468.569 265.586C468.023 265.586 467.542 265.449 467.124 265.173C466.707 264.895 466.38 264.503 466.144 263.997C465.908 263.488 465.79 262.888 465.79 262.194C465.79 261.507 465.908 260.91 466.144 260.405C466.38 259.899 466.708 259.508 467.128 259.233C467.549 258.957 468.035 258.819 468.586 258.819C469.012 258.819 469.349 258.89 469.596 259.032C469.846 259.172 470.036 259.331 470.167 259.51C470.3 259.686 470.404 259.831 470.478 259.944H470.563V256.723H471.569V265.45H470.597V264.444H470.478C470.404 264.564 470.299 264.714 470.163 264.896C470.026 265.075 469.832 265.236 469.579 265.378C469.326 265.517 468.989 265.586 468.569 265.586ZM468.705 264.683C469.109 264.683 469.449 264.578 469.728 264.368C470.006 264.155 470.218 263.861 470.363 263.486C470.508 263.108 470.58 262.672 470.58 262.177C470.58 261.689 470.509 261.261 470.367 260.895C470.225 260.525 470.015 260.238 469.736 260.034C469.458 259.826 469.114 259.723 468.705 259.723C468.279 259.723 467.924 259.832 467.64 260.051C467.359 260.267 467.147 260.561 467.005 260.933C466.866 261.302 466.796 261.717 466.796 262.177C466.796 262.643 466.867 263.066 467.009 263.447C467.154 263.825 467.367 264.126 467.648 264.351C467.932 264.572 468.285 264.683 468.705 264.683ZM476.209 265.586C475.619 265.586 475.1 265.446 474.654 265.165C474.211 264.883 473.864 264.49 473.614 263.984C473.367 263.478 473.244 262.888 473.244 262.211C473.244 261.53 473.367 260.934 473.614 260.426C473.864 259.917 474.211 259.522 474.654 259.241C475.1 258.96 475.619 258.819 476.209 258.819C476.8 258.819 477.317 258.96 477.761 259.241C478.207 259.522 478.553 259.917 478.8 260.426C479.05 260.934 479.175 261.53 479.175 262.211C479.175 262.888 479.05 263.478 478.8 263.984C478.553 264.49 478.207 264.883 477.761 265.165C477.317 265.446 476.8 265.586 476.209 265.586ZM476.209 264.683C476.658 264.683 477.028 264.568 477.317 264.338C477.607 264.108 477.822 263.805 477.961 263.43C478.1 263.055 478.17 262.649 478.17 262.211C478.17 261.774 478.1 261.366 477.961 260.988C477.822 260.611 477.607 260.305 477.317 260.072C477.028 259.839 476.658 259.723 476.209 259.723C475.761 259.723 475.391 259.839 475.101 260.072C474.812 260.305 474.597 260.611 474.458 260.988C474.319 261.366 474.249 261.774 474.249 262.211C474.249 262.649 474.319 263.055 474.458 263.43C474.597 263.805 474.812 264.108 475.101 264.338C475.391 264.568 475.761 264.683 476.209 264.683ZM480.71 265.45V258.905H481.682V259.893H481.75C481.87 259.569 482.085 259.307 482.398 259.105C482.71 258.903 483.063 258.802 483.455 258.802C483.529 258.802 483.621 258.804 483.732 258.807C483.843 258.809 483.926 258.814 483.983 258.819V259.842C483.949 259.834 483.871 259.821 483.749 259.804C483.63 259.784 483.503 259.774 483.37 259.774C483.051 259.774 482.767 259.841 482.517 259.974C482.27 260.105 482.074 260.287 481.929 260.52C481.787 260.75 481.716 261.013 481.716 261.308V265.45H480.71ZM487.635 265.586C487.044 265.586 486.526 265.446 486.08 265.165C485.637 264.883 485.29 264.49 485.04 263.984C484.793 263.478 484.669 262.888 484.669 262.211C484.669 261.53 484.793 260.934 485.04 260.426C485.29 259.917 485.637 259.522 486.08 259.241C486.526 258.96 487.044 258.819 487.635 258.819C488.226 258.819 488.743 258.96 489.186 259.241C489.632 259.522 489.979 259.917 490.226 260.426C490.476 260.934 490.601 261.53 490.601 262.211C490.601 262.888 490.476 263.478 490.226 263.984C489.979 264.49 489.632 264.883 489.186 265.165C488.743 265.446 488.226 265.586 487.635 265.586ZM487.635 264.683C488.084 264.683 488.453 264.568 488.743 264.338C489.033 264.108 489.247 263.805 489.387 263.43C489.526 263.055 489.595 262.649 489.595 262.211C489.595 261.774 489.526 261.366 489.387 260.988C489.247 260.611 489.033 260.305 488.743 260.072C488.453 259.839 488.084 259.723 487.635 259.723C487.186 259.723 486.817 259.839 486.527 260.072C486.237 260.305 486.023 260.611 485.884 260.988C485.745 261.366 485.675 261.774 485.675 262.211C485.675 262.649 485.745 263.055 485.884 263.43C486.023 263.805 486.237 264.108 486.527 264.338C486.817 264.568 487.186 264.683 487.635 264.683ZM498.358 258.905V259.757H494.966V258.905H498.358ZM495.954 257.336H496.96V263.575C496.96 263.859 497.001 264.072 497.084 264.214C497.169 264.353 497.277 264.447 497.408 264.495C497.541 264.541 497.682 264.564 497.829 264.564C497.94 264.564 498.031 264.558 498.102 264.547C498.173 264.532 498.23 264.521 498.273 264.513L498.477 265.416C498.409 265.441 498.314 265.467 498.192 265.493C498.07 265.521 497.915 265.535 497.727 265.535C497.443 265.535 497.165 265.474 496.892 265.352C496.622 265.23 496.398 265.044 496.219 264.794C496.043 264.544 495.954 264.228 495.954 263.848V257.336ZM502.545 265.586C501.914 265.586 501.37 265.447 500.913 265.169C500.458 264.888 500.107 264.495 499.86 263.993C499.616 263.487 499.494 262.899 499.494 262.228C499.494 261.558 499.616 260.967 499.86 260.456C500.107 259.941 500.451 259.541 500.891 259.254C501.334 258.964 501.851 258.819 502.442 258.819C502.783 258.819 503.12 258.876 503.452 258.99C503.785 259.103 504.087 259.288 504.36 259.544C504.633 259.797 504.85 260.132 505.012 260.549C505.174 260.967 505.255 261.481 505.255 262.092V262.518H500.209V261.649H504.232C504.232 261.28 504.158 260.95 504.011 260.66C503.866 260.37 503.658 260.142 503.388 259.974C503.121 259.807 502.806 259.723 502.442 259.723C502.042 259.723 501.695 259.822 501.403 260.021C501.113 260.217 500.89 260.473 500.734 260.788C500.577 261.103 500.499 261.441 500.499 261.802V262.382C500.499 262.876 500.584 263.295 500.755 263.639C500.928 263.98 501.168 264.24 501.475 264.419C501.782 264.595 502.138 264.683 502.545 264.683C502.809 264.683 503.047 264.646 503.261 264.572C503.476 264.495 503.663 264.382 503.819 264.231C503.975 264.078 504.096 263.888 504.181 263.66L505.153 263.933C505.05 264.263 504.878 264.552 504.637 264.802C504.396 265.049 504.097 265.243 503.742 265.382C503.387 265.518 502.988 265.586 502.545 265.586ZM509.444 265.586C508.83 265.586 508.302 265.441 507.859 265.152C507.415 264.862 507.074 264.463 506.836 263.954C506.597 263.446 506.478 262.865 506.478 262.211C506.478 261.547 506.6 260.96 506.844 260.451C507.092 259.94 507.435 259.541 507.876 259.254C508.319 258.964 508.836 258.819 509.427 258.819C509.887 258.819 510.302 258.905 510.671 259.075C511.04 259.245 511.343 259.484 511.579 259.791C511.815 260.098 511.961 260.456 512.018 260.865H511.012C510.935 260.566 510.765 260.302 510.501 260.072C510.239 259.839 509.887 259.723 509.444 259.723C509.052 259.723 508.708 259.825 508.413 260.03C508.12 260.231 507.891 260.517 507.726 260.886C507.565 261.253 507.484 261.683 507.484 262.177C507.484 262.683 507.563 263.123 507.722 263.498C507.884 263.873 508.111 264.165 508.404 264.372C508.699 264.579 509.046 264.683 509.444 264.683C509.705 264.683 509.942 264.638 510.155 264.547C510.369 264.456 510.549 264.325 510.697 264.155C510.844 263.984 510.949 263.78 511.012 263.541H512.018C511.961 263.927 511.82 264.275 511.596 264.585C511.374 264.892 511.08 265.136 510.714 265.318C510.35 265.497 509.927 265.586 509.444 265.586ZM514.494 261.513V265.45H513.488V256.723H514.494V259.927H514.579C514.732 259.589 514.962 259.321 515.269 259.122C515.579 258.92 515.991 258.819 516.505 258.819C516.951 258.819 517.342 258.909 517.677 259.088C518.012 259.264 518.272 259.535 518.457 259.902C518.644 260.265 518.738 260.728 518.738 261.291V265.45H517.732V261.359C517.732 260.839 517.597 260.437 517.327 260.153C517.06 259.866 516.69 259.723 516.215 259.723C515.886 259.723 515.59 259.792 515.329 259.932C515.07 260.071 514.866 260.274 514.715 260.541C514.567 260.808 514.494 261.132 514.494 261.513ZM521.583 261.513V265.45H520.578V258.905H521.549V259.927H521.634C521.788 259.595 522.021 259.328 522.333 259.126C522.646 258.922 523.049 258.819 523.544 258.819C523.987 258.819 524.375 258.91 524.707 259.092C525.039 259.271 525.298 259.544 525.483 259.91C525.667 260.274 525.759 260.734 525.759 261.291V265.45H524.754V261.359C524.754 260.845 524.62 260.444 524.353 260.157C524.086 259.868 523.72 259.723 523.254 259.723C522.933 259.723 522.646 259.792 522.393 259.932C522.143 260.071 521.946 260.274 521.801 260.541C521.656 260.808 521.583 261.132 521.583 261.513ZM527.597 265.45V258.905H528.603V265.45H527.597ZM528.109 257.814C527.913 257.814 527.744 257.747 527.601 257.613C527.462 257.48 527.393 257.319 527.393 257.132C527.393 256.944 527.462 256.784 527.601 256.65C527.744 256.517 527.913 256.45 528.109 256.45C528.305 256.45 528.472 256.517 528.611 256.65C528.753 256.784 528.824 256.944 528.824 257.132C528.824 257.319 528.753 257.48 528.611 257.613C528.472 257.747 528.305 257.814 528.109 257.814ZM534.911 267.905V264.444H534.826C534.752 264.564 534.647 264.714 534.51 264.896C534.374 265.075 534.179 265.236 533.926 265.378C533.674 265.517 533.337 265.586 532.916 265.586C532.371 265.586 531.889 265.449 531.472 265.173C531.054 264.895 530.728 264.503 530.492 263.997C530.256 263.488 530.138 262.888 530.138 262.194C530.138 261.507 530.256 260.91 530.492 260.405C530.728 259.899 531.056 259.508 531.476 259.233C531.897 258.957 532.382 258.819 532.934 258.819C533.36 258.819 533.696 258.89 533.943 259.032C534.193 259.172 534.384 259.331 534.514 259.51C534.648 259.686 534.752 259.831 534.826 259.944H534.945V258.905H535.916V267.905H534.911ZM533.053 264.683C533.456 264.683 533.797 264.578 534.076 264.368C534.354 264.155 534.566 263.861 534.71 263.486C534.855 263.108 534.928 262.672 534.928 262.177C534.928 261.689 534.857 261.261 534.715 260.895C534.573 260.525 534.362 260.238 534.084 260.034C533.806 259.826 533.462 259.723 533.053 259.723C532.627 259.723 532.272 259.832 531.987 260.051C531.706 260.267 531.495 260.561 531.353 260.933C531.213 261.302 531.144 261.717 531.144 262.177C531.144 262.643 531.215 263.066 531.357 263.447C531.502 263.825 531.715 264.126 531.996 264.351C532.28 264.572 532.632 264.683 533.053 264.683ZM541.882 262.774V258.905H542.888V265.45H541.882V264.342H541.814C541.661 264.674 541.422 264.957 541.098 265.19C540.774 265.42 540.365 265.535 539.871 265.535C539.462 265.535 539.098 265.446 538.78 265.267C538.462 265.085 538.212 264.812 538.03 264.449C537.848 264.082 537.757 263.62 537.757 263.064V258.905H538.763V262.995C538.763 263.473 538.897 263.853 539.164 264.138C539.434 264.422 539.777 264.564 540.195 264.564C540.445 264.564 540.699 264.5 540.958 264.372C541.219 264.244 541.438 264.048 541.614 263.784C541.793 263.52 541.882 263.183 541.882 262.774ZM547.474 265.586C546.844 265.586 546.3 265.447 545.842 265.169C545.388 264.888 545.037 264.495 544.79 263.993C544.545 263.487 544.423 262.899 544.423 262.228C544.423 261.558 544.545 260.967 544.79 260.456C545.037 259.941 545.381 259.541 545.821 259.254C546.264 258.964 546.781 258.819 547.372 258.819C547.713 258.819 548.05 258.876 548.382 258.99C548.714 259.103 549.017 259.288 549.29 259.544C549.562 259.797 549.78 260.132 549.942 260.549C550.104 260.967 550.185 261.481 550.185 262.092V262.518H545.139V261.649H549.162C549.162 261.28 549.088 260.95 548.94 260.66C548.795 260.37 548.588 260.142 548.318 259.974C548.051 259.807 547.736 259.723 547.372 259.723C546.972 259.723 546.625 259.822 546.332 260.021C546.043 260.217 545.82 260.473 545.663 260.788C545.507 261.103 545.429 261.441 545.429 261.802V262.382C545.429 262.876 545.514 263.295 545.685 263.639C545.858 263.98 546.098 264.24 546.405 264.419C546.712 264.595 547.068 264.683 547.474 264.683C547.739 264.683 547.977 264.646 548.19 264.572C548.406 264.495 548.592 264.382 548.748 264.231C548.905 264.078 549.025 263.888 549.111 263.66L550.082 263.933C549.98 264.263 549.808 264.552 549.567 264.802C549.325 265.049 549.027 265.243 548.672 265.382C548.317 265.518 547.918 265.586 547.474 265.586Z" fill="black"/>
<path d="M105.47 400.93C105.47 400.93 11.4701 312.21 63.1101 194.42C77.4601 161.68 100.66 133.62 129.53 112.54C194.17 65.35 357.75 -28 603.81 7.99998C630.241 11.7736 655.53 21.2714 677.91 35.83C714 59.55 752.31 103.07 736 177.64C730.25 203.99 731.55 231.48 741 256.74C750.4 281.74 768.2 312.42 801.35 345.57C801.35 345.57 871.99 413.8 803.27 472.85C788.607 485.345 771.261 494.294 752.58 499C666.91 520.91 320.48 593.72 105.47 400.93Z" fill="#6D61F5"/>
<path opacity="0.7" d="M105.47 400.93C105.47 400.93 11.4701 312.21 63.1101 194.42C77.4601 161.68 100.66 133.62 129.53 112.54C194.17 65.35 357.75 -28 603.81 7.99998C630.241 11.7736 655.53 21.2714 677.91 35.83C714 59.55 752.31 103.07 736 177.64C730.25 203.99 731.55 231.48 741 256.74C750.4 281.74 768.2 312.42 801.35 345.57C801.35 345.57 871.99 413.8 803.27 472.85C788.607 485.345 771.261 494.294 752.58 499C666.91 520.91 320.48 593.72 105.47 400.93Z" fill="white"/>
<path d="M275.7 504.61H824.86V516.87C824.865 518.724 824.505 520.56 823.799 522.274C823.093 523.988 822.056 525.546 820.747 526.859C819.439 528.172 817.884 529.213 816.171 529.924C814.459 530.634 812.624 531 810.77 531H275.7V504.61Z" fill="#909091"/>
<path d="M404.59 60.46H724.78C741.566 60.46 757.664 67.128 769.533 78.9972C781.402 90.8664 788.07 106.964 788.07 123.75V515H341.29V123.76C341.29 106.974 347.958 90.8764 359.827 79.0072C371.696 67.1381 387.794 60.47 404.58 60.47L404.59 60.46Z" fill="#CCCCCC"/>
<path d="M422.56 60.46H732.15C750.341 60.46 767.787 67.6864 780.65 80.5496C793.514 93.4127 800.74 110.859 800.74 129.05V515H354V129C354.013 110.823 361.241 93.3939 374.097 80.5425C386.952 67.691 404.383 60.468 422.56 60.46Z" fill="#E6E6E6"/>
<path d="M727.34 357.26L694.92 499.81H616.56L625.38 339.58H713.24C713.507 339.58 713.777 339.58 714.05 339.58C716.154 339.697 718.206 340.272 720.064 341.265C721.922 342.258 723.541 343.645 724.807 345.329C726.073 347.013 726.955 348.954 727.393 351.014C727.83 353.075 727.812 355.207 727.34 357.26Z" fill="#3F4347"/>
<path d="M727.34 357.26L694.92 499.81H666.31L701.41 350.81C702.113 347.742 703.781 344.98 706.17 342.93C708.388 341.038 711.145 339.891 714.05 339.65C716.146 339.769 718.191 340.342 720.043 341.331C721.895 342.32 723.51 343.701 724.775 345.376C726.039 347.052 726.924 348.983 727.367 351.035C727.81 353.088 727.801 355.212 727.34 357.26Z" fill="#2E3135"/>
<path d="M616.56 499.81H653.68C653.68 499.81 662.11 447.81 651.07 423.93L616.56 499.81Z" fill="#2E3135"/>
<path d="M526.1 137.12H555.96" stroke="#CCCCCC" stroke-width="4" stroke-miterlimit="10"/>
<path d="M525.91 157.32H555.77" stroke="#CCCCCC" stroke-width="4" stroke-miterlimit="10"/>
<path d="M526.54 195.21H556.4" stroke="#CCCCCC" stroke-width="4" stroke-miterlimit="10"/>
<path d="M431.33 240.85C431.33 240.85 418.58 263 410 306.31C410 306.31 401.28 354.19 399.09 397.22C399.09 397.22 393.51 477.01 393.25 487.54V500.34H467L474 495.82L477.64 450.66L478.4 353.99C478.4 353.99 477.68 299.44 490.77 256.23L467 252.68L448 247.28L431.33 240.85Z" fill="#E6E6E6"/>
<path d="M409.8 181C409.8 181 368.39 223 392.23 254.4C392.23 254.4 416.46 236.71 436.23 232C435.899 230.294 435.659 228.571 435.51 226.84V208.45C435.51 208.45 418.64 205.44 409.8 181Z" fill="#2F2E41"/>
<path d="M396.06 148.22L410.44 144.07C410.606 144.024 410.779 144.014 410.948 144.041C411.118 144.068 411.28 144.131 411.423 144.226C411.566 144.321 411.687 144.445 411.778 144.591C411.869 144.736 411.928 144.9 411.95 145.07C411.996 145.36 411.935 145.657 411.779 145.905C411.623 146.153 411.381 146.336 411.1 146.42L396.45 150.63L396.06 148.22Z" fill="#6D61F5"/>
<path d="M409.67 172.38C417.292 172.38 423.47 166.116 423.47 158.39C423.47 150.664 417.292 144.4 409.67 144.4C402.049 144.4 395.87 150.664 395.87 158.39C395.87 166.116 402.049 172.38 409.67 172.38Z" fill="#F29681"/>
<path d="M491.1 159.33V225.33C491.1 232.571 488.273 239.526 483.222 244.715C478.171 249.903 471.294 252.915 464.055 253.11C456.817 253.304 449.788 250.665 444.466 245.755C439.144 240.844 435.948 234.051 435.56 226.82C435.56 226.33 435.56 225.82 435.56 225.33V159.33H491.1Z" fill="#F9B499"/>
<path d="M479.3 193.32C467.48 227.87 439.55 227.16 435.56 226.87C435.56 226.38 435.56 225.87 435.56 225.38V202.29L479.3 193.32Z" fill="#F29681"/>
<g opacity="0.2">
<path d="M401.49 248.35C401.455 248.35 401.421 248.341 401.391 248.324C401.361 248.306 401.337 248.281 401.32 248.25C399.109 244.02 397.776 239.388 397.4 234.63C397.088 230.655 397.361 226.656 398.21 222.76C399.033 218.722 400.431 214.822 402.36 211.18C402.372 211.159 402.388 211.14 402.407 211.126C402.426 211.111 402.447 211.1 402.471 211.093C402.494 211.087 402.518 211.085 402.542 211.088C402.566 211.091 402.589 211.098 402.61 211.11C402.631 211.122 402.65 211.138 402.665 211.157C402.679 211.176 402.69 211.197 402.697 211.22C402.703 211.244 402.705 211.268 402.702 211.292C402.7 211.316 402.692 211.339 402.68 211.36C400.78 214.979 399.396 218.847 398.57 222.85C396.635 231.363 397.728 240.285 401.66 248.08C401.682 248.124 401.685 248.174 401.67 248.221C401.655 248.268 401.623 248.307 401.58 248.33C401.553 248.346 401.522 248.353 401.49 248.35Z" fill="black"/>
</g>
<path d="M378.68 257.25C378.641 257.252 378.603 257.242 378.57 257.22C378.538 257.198 378.513 257.167 378.5 257.13C378.5 257.02 374.63 246.18 376.5 231.13C377.622 222.238 380.468 213.651 384.88 205.85C390.46 195.85 398.64 186.76 409.19 178.7C409.227 178.666 409.275 178.648 409.325 178.648C409.375 178.648 409.423 178.666 409.46 178.7C409.493 178.735 409.512 178.782 409.512 178.83C409.512 178.878 409.493 178.925 409.46 178.96C385.67 197.13 378.63 217.36 376.91 231.14C375.05 246.06 378.86 256.81 378.91 256.92C378.927 256.966 378.924 257.017 378.904 257.062C378.883 257.107 378.846 257.142 378.8 257.16L378.68 257.25Z" fill="#2F2E41"/>
<path d="M436.28 232C436.28 232 397.69 240.41 362.37 283C362.37 283 331.63 318.75 315.32 377.22L353.71 487.5H393.23C393.23 487.5 397.75 408.21 400.76 377.97C400.76 378 408.17 277.89 436.28 232Z" fill="#6D61F5"/>
<g opacity="0.2">
<path d="M318.31 385.33H318.25C318.227 385.323 318.205 385.312 318.186 385.296C318.168 385.281 318.152 385.262 318.141 385.241C318.13 385.219 318.123 385.196 318.121 385.171C318.119 385.147 318.122 385.123 318.13 385.1C323.307 368.965 329.387 353.133 336.34 337.68C342.278 324.215 349.183 311.198 357 298.73C365.8 285 374.73 274.56 383.56 267.73C383.578 267.712 383.599 267.698 383.622 267.688C383.645 267.679 383.67 267.674 383.695 267.674C383.72 267.674 383.745 267.679 383.768 267.688C383.791 267.698 383.812 267.712 383.83 267.73C383.848 267.747 383.861 267.767 383.871 267.789C383.881 267.812 383.885 267.836 383.885 267.86C383.885 267.884 383.881 267.908 383.871 267.931C383.861 267.953 383.848 267.973 383.83 267.99C363.9 283.46 347.21 314.49 336.71 337.81C329.758 353.249 323.681 369.067 318.51 385.19C318.498 385.233 318.472 385.271 318.435 385.296C318.399 385.322 318.354 385.334 318.31 385.33Z" fill="black"/>
</g>
<g opacity="0.2">
<path d="M395.12 259.51C395.091 259.512 395.062 259.507 395.036 259.495C395.01 259.482 394.987 259.464 394.97 259.44C394.952 259.422 394.938 259.401 394.928 259.378C394.919 259.355 394.914 259.33 394.914 259.305C394.914 259.28 394.919 259.255 394.928 259.232C394.938 259.209 394.952 259.188 394.97 259.17C395.03 259.17 400.28 255.25 407.4 250.94C413.98 246.94 423.54 241.82 431.76 239.85C431.784 239.844 431.808 239.843 431.832 239.847C431.856 239.851 431.879 239.86 431.9 239.873C431.92 239.886 431.938 239.903 431.952 239.923C431.966 239.943 431.975 239.966 431.98 239.99C431.987 240.014 431.99 240.039 431.987 240.063C431.985 240.088 431.977 240.112 431.965 240.133C431.953 240.155 431.936 240.174 431.917 240.189C431.897 240.204 431.874 240.214 431.85 240.22C416.21 243.97 395.41 259.32 395.2 259.47C395.178 259.491 395.15 259.505 395.12 259.51Z" fill="black"/>
</g>
<path opacity="0.2" d="M396.36 253.3C396.31 253.35 391.7 258.3 386.36 268.24C383.062 274.374 380.266 280.765 378 287.35C374.956 296.224 372.684 305.345 371.21 314.61L361 359.35C358.634 366.851 355.689 374.156 352.19 381.2C346.19 393.7 337.7 407.36 327.45 412.01L346.4 466.59C347.84 450.37 349.72 433.557 352.04 416.15C354.474 398.15 357.22 380.843 360.28 364.23L371.55 314.68C375.04 293.07 381.67 277.6 386.61 268.43C391.96 258.49 396.55 253.6 396.61 253.56L396.36 253.3Z" fill="black"/>
<path d="M591.14 283.65C627.58 328.74 645.92 387.92 645.92 387.92C670.39 469.23 621.08 500.22 621.08 500.22L467 500.47C479.54 472.99 457.21 458.06 457.21 458.06L477.66 450.66L478.42 359.19C476.92 309.76 489 262.33 489 262.33C495.59 244.33 491.14 226.07 490.38 225.7C490.34 225.7 552.29 235.59 591.14 283.65Z" fill="#6D61F5"/>
<g opacity="0.2">
<path d="M495.24 482.21C495.191 482.21 495.145 482.191 495.109 482.158C495.074 482.124 495.053 482.079 495.05 482.03C495.049 482.006 495.052 481.981 495.061 481.958C495.069 481.935 495.082 481.914 495.099 481.896C495.116 481.878 495.136 481.864 495.159 481.855C495.181 481.845 495.206 481.84 495.23 481.84L581 479.51C582.29 479.51 583.59 479.51 584.88 479.58C586.88 479.713 588.853 479.78 590.8 479.78C606.35 479.78 618.38 475.48 626.62 466.96C633.94 459.38 636.82 449.8 637.94 443.1C638.675 438.852 638.903 434.532 638.62 430.23C637.52 386.13 622.14 349.28 609.43 326.13C595.62 301 581.93 286.2 581.8 286.05C581.782 286.032 581.768 286.011 581.758 285.988C581.749 285.965 581.744 285.94 581.744 285.915C581.744 285.89 581.749 285.865 581.758 285.842C581.768 285.819 581.782 285.798 581.8 285.78C581.835 285.747 581.882 285.729 581.93 285.729C581.978 285.729 582.025 285.747 582.06 285.78C582.2 285.93 595.91 300.78 609.71 325.92C617.706 340.44 624.222 355.727 629.16 371.55C635.12 390.555 638.431 410.291 639 430.2C639.277 434.529 639.046 438.875 638.31 443.15C637.638 447.277 636.466 451.306 634.82 455.15C632.92 459.594 630.233 463.659 626.89 467.15C618.58 475.74 606.46 480.08 590.8 480.08C588.873 480.08 586.893 480.017 584.86 479.89C583.58 479.8 582.29 479.78 581.01 479.81L495.28 482.14L495.24 482.21Z" fill="black"/>
</g>
<g opacity="0.2">
<path d="M545.93 351.6C545.886 351.601 545.843 351.587 545.808 351.559C545.773 351.532 545.749 351.493 545.74 351.45C544.185 341.6 544.525 331.543 546.74 321.82C548.695 313.121 552.684 305.009 558.38 298.15C565.31 289.98 574.8 284.03 586.6 280.47C586.648 280.458 586.698 280.464 586.741 280.488C586.784 280.513 586.816 280.553 586.83 280.6C586.838 280.623 586.841 280.647 586.839 280.671C586.837 280.696 586.83 280.719 586.819 280.741C586.808 280.762 586.792 280.781 586.774 280.796C586.755 280.812 586.733 280.823 586.71 280.83C560.16 288.83 550.52 307.59 547.11 321.9C544.901 331.573 544.561 341.579 546.11 351.38C546.119 351.429 546.108 351.479 546.08 351.521C546.052 351.562 546.009 351.59 545.96 351.6H545.93Z" fill="black"/>
</g>
<g opacity="0.2">
<path d="M576 280.21C575.955 280.224 575.906 280.224 575.86 280.21C557.29 260.98 535.62 249.61 520.71 243.46C511.625 239.608 502.188 236.647 492.53 234.62C492.503 234.62 492.475 234.614 492.45 234.603C492.425 234.591 492.403 234.574 492.385 234.553C492.367 234.532 492.354 234.508 492.346 234.481C492.339 234.455 492.337 234.427 492.342 234.4C492.346 234.372 492.357 234.346 492.372 234.324C492.387 234.301 492.408 234.281 492.431 234.267C492.455 234.253 492.481 234.244 492.509 234.241C492.536 234.238 492.564 234.241 492.59 234.25C502.275 236.283 511.739 239.25 520.85 243.11C530.234 246.976 539.268 251.643 547.85 257.06C558.142 263.542 567.628 271.222 576.11 279.94C576.128 279.958 576.142 279.979 576.152 280.002C576.162 280.025 576.167 280.05 576.167 280.075C576.167 280.1 576.162 280.125 576.152 280.148C576.142 280.171 576.128 280.192 576.11 280.21C576.074 280.221 576.036 280.221 576 280.21Z" fill="black"/>
</g>
<path d="M524.97 296.84H501.13C498.844 296.84 496.99 298.694 496.99 300.98C496.99 303.266 498.844 305.12 501.13 305.12H524.97C527.257 305.12 529.11 303.266 529.11 300.98C529.11 298.694 527.257 296.84 524.97 296.84Z" fill="white"/>
<path d="M470.69 487.12C460.32 491.85 447.81 487.04 447.81 487.04L432.68 481.33L418.58 476C417.728 475.409 416.741 475.042 415.71 474.932C414.679 474.822 413.637 474.973 412.68 475.37C408.17 476.5 403.15 477.37 403.15 477.37C400.424 477.894 397.769 478.736 395.24 479.88L382.82 486.28C380.651 487.251 378.284 487.7 375.91 487.59C373.536 487.481 371.221 486.816 369.15 485.65C362.37 490.17 356.85 484.65 356.85 484.65C354.72 487.16 353.47 486.84 353.47 486.84L351.16 480.23L365.38 465.33L359.48 468.97C356.285 471.417 352.25 472.496 348.26 471.97L346.13 465.61L371.28 451.61L393.28 448.73C406.58 446.22 415.28 448.6 415.28 448.6L448.4 457.51C455.05 460.39 457.31 458.01 457.31 458.01C473.66 470.36 470.69 487.12 470.69 487.12Z" fill="#F9B499"/>
<path d="M470.69 487.12C460.32 491.85 447.81 487.04 447.81 487.04L432.68 481.33L432.62 481.21C458.84 480.64 457.22 458.06 457.22 458.06C473.66 470.36 470.69 487.12 470.69 487.12Z" fill="#F29681"/>
<path d="M366.76 464.14C366.724 464.149 366.686 464.149 366.65 464.14C366.617 464.105 366.599 464.058 366.599 464.01C366.599 463.962 366.617 463.915 366.65 463.88C366.71 463.79 372.65 455.52 379.7 454.77L396.84 452C396.866 451.991 396.894 451.988 396.921 451.991C396.949 451.994 396.975 452.003 396.999 452.017C397.023 452.031 397.043 452.051 397.058 452.074C397.074 452.096 397.084 452.122 397.088 452.15C397.093 452.177 397.091 452.205 397.084 452.231C397.076 452.258 397.063 452.282 397.045 452.303C397.027 452.324 397.005 452.341 396.98 452.353C396.955 452.364 396.928 452.37 396.9 452.37L379.71 455.13C372.84 455.87 366.97 464 366.92 464.13C366.896 464.143 366.869 464.15 366.841 464.152C366.814 464.153 366.786 464.149 366.76 464.14Z" fill="#F29681"/>
<path d="M356.85 484.85C356.825 484.851 356.801 484.846 356.778 484.835C356.755 484.825 356.736 484.809 356.72 484.79C356.701 484.773 356.686 484.752 356.675 484.729C356.665 484.706 356.659 484.681 356.659 484.655C356.659 484.629 356.665 484.604 356.675 484.581C356.686 484.558 356.701 484.537 356.72 484.52L376.1 465.6C377.56 464.156 379.374 463.121 381.36 462.6L402.72 457.09C402.744 457.084 402.77 457.083 402.794 457.087C402.819 457.09 402.843 457.099 402.864 457.112C402.886 457.125 402.904 457.142 402.919 457.162C402.934 457.183 402.944 457.206 402.95 457.23C402.963 457.278 402.956 457.328 402.932 457.371C402.907 457.414 402.867 457.446 402.82 457.46L381.46 463C379.538 463.499 377.78 464.492 376.36 465.88L357 484.79C356.983 484.812 356.96 484.83 356.933 484.84C356.907 484.851 356.878 484.854 356.85 484.85Z" fill="#F29681"/>
<path d="M369 485.6C368.97 485.6 368.941 485.593 368.915 485.579C368.889 485.565 368.866 485.545 368.85 485.52C368.679 485.249 368.568 484.945 368.525 484.627C368.482 484.31 368.508 483.987 368.6 483.68C368.94 482.47 370.14 481.39 372.18 480.47L405.67 462.29C405.89 462.14 409.52 459.88 416.67 460.29C416.694 460.29 416.718 460.295 416.74 460.305C416.762 460.314 416.782 460.329 416.798 460.347C416.814 460.365 416.826 460.386 416.833 460.409C416.84 460.432 416.843 460.456 416.84 460.48C416.84 460.505 416.835 460.529 416.825 460.551C416.816 460.574 416.801 460.594 416.784 460.611C416.766 460.628 416.745 460.641 416.722 460.649C416.699 460.658 416.674 460.661 416.65 460.66C409.53 460.29 405.88 462.66 405.84 462.66L372.34 480.85C370.43 481.7 369.27 482.72 368.97 483.8C368.893 484.054 368.87 484.321 368.901 484.584C368.932 484.847 369.016 485.101 369.15 485.33C369.184 485.367 369.202 485.415 369.202 485.465C369.202 485.515 369.184 485.563 369.15 485.6C369.101 485.617 369.049 485.617 369 485.6Z" fill="#F29681"/>
<path d="M488.19 233.54C482.89 247.15 472.77 250.32 472.77 250.32C452.69 258.12 441.77 243.11 441.77 243.11C441.77 243.11 465.39 260.11 482.83 239C486.42 233.904 489.219 228.294 491.13 222.36C491.13 222.36 489.91 229.59 488.19 233.54Z" fill="#F29681"/>
<path opacity="0.2" d="M434.88 269.78C435.505 272.302 436.348 274.765 437.4 277.14C437.4 277.14 448.31 261.21 455.21 256.06C462.767 264.072 468.429 273.678 471.78 284.17C471.78 284.17 484.11 275.83 487.78 262.68C483.838 268.858 479.036 274.444 473.52 279.27C473.52 279.27 472.52 268.43 455.84 252.14L455.08 251.92C455.08 251.92 442.4 254.9 434.88 269.78Z" fill="black"/>
<path opacity="0.2" d="M398.34 411C398.34 411 412.82 308.76 430.63 266.5C430.63 266.5 426.39 255.93 431.33 240.9C422.54 260.633 416.054 281.312 412 302.53C412 302.53 401.1 356.42 400.07 386.41L398.34 411Z" fill="black"/>
<path d="M191.71 484.28L150.51 380.53C149.619 378.286 149.275 375.862 149.507 373.459C149.739 371.055 150.542 368.742 151.847 366.71C153.152 364.679 154.922 362.988 157.012 361.777C159.101 360.567 161.449 359.872 163.86 359.75L265.86 354.57C274.513 354.129 283.073 356.52 290.244 361.382C297.415 366.243 302.806 373.309 305.6 381.51L341.53 486.86C342.996 491.235 345.883 494.994 349.73 497.54C351.768 498.874 354.011 499.864 356.37 500.47H215.56C210.421 500.47 205.399 498.927 201.147 496.041C196.895 493.154 193.607 489.057 191.71 484.28Z" fill="#2F2E41"/>
<path d="M268.77 354.55L289.77 353.9C294.731 353.796 299.598 355.264 303.675 358.093C307.752 360.921 310.83 364.967 312.47 369.65L353.75 487.54H459.45C460.291 487.54 461.124 487.706 461.902 488.028C462.679 488.35 463.385 488.823 463.979 489.418C464.573 490.013 465.045 490.72 465.366 491.498C465.687 492.275 465.851 493.109 465.85 493.95C465.85 495.646 465.177 497.272 463.979 498.472C462.781 499.672 461.156 500.347 459.46 500.35L356.35 500.47C352.943 499.608 349.803 497.913 347.213 495.537C344.623 493.162 342.663 490.18 341.51 486.86L305.58 381.51C305.58 381.51 298.38 356.06 268.77 354.55Z" fill="#2F2E41"/>
<path opacity="0.2" d="M268.77 354.55L289.77 353.9C294.731 353.796 299.598 355.264 303.675 358.093C307.752 360.921 310.83 364.967 312.47 369.65L353.75 487.54H459.45C460.291 487.54 461.124 487.706 461.902 488.028C462.679 488.35 463.385 488.823 463.979 489.418C464.573 490.013 465.045 490.72 465.366 491.498C465.687 492.275 465.851 493.109 465.85 493.95C465.85 495.646 465.177 497.272 463.979 498.472C462.781 499.672 461.156 500.347 459.46 500.35L356.35 500.47C352.943 499.608 349.803 497.913 347.213 495.537C344.623 493.162 342.663 490.18 341.51 486.86L305.58 381.51C305.58 381.51 298.38 356.06 268.77 354.55Z" fill="black"/>
<path opacity="0.2" d="M247.01 443.13C253.002 443.13 257.86 438.272 257.86 432.28C257.86 426.288 253.002 421.43 247.01 421.43C241.018 421.43 236.16 426.288 236.16 432.28C236.16 438.272 241.018 443.13 247.01 443.13Z" fill="black"/>
<path d="M270.4 199.73H59.4998C52.0826 199.73 46.0698 205.743 46.0698 213.16V381.52C46.0698 388.937 52.0826 394.95 59.4998 394.95H270.4C277.817 394.95 283.83 388.937 283.83 381.52V213.16C283.83 205.743 277.817 199.73 270.4 199.73Z" fill="#E6E6E6"/>
<path d="M255.66 235.36C253.462 235.36 251.314 234.708 249.486 233.487C247.659 232.266 246.235 230.53 245.395 228.499C244.554 226.469 244.335 224.234 244.764 222.079C245.194 219.923 246.253 217.944 247.807 216.391C249.362 214.837 251.343 213.78 253.498 213.352C255.654 212.925 257.888 213.146 259.918 213.989C261.948 214.831 263.683 216.257 264.902 218.085C266.122 219.913 266.772 222.062 266.77 224.26C266.767 227.205 265.595 230.028 263.512 232.11C261.429 234.191 258.605 235.36 255.66 235.36ZM255.66 213.65C253.561 213.648 251.509 214.269 249.762 215.433C248.016 216.598 246.655 218.254 245.85 220.193C245.046 222.131 244.834 224.265 245.242 226.324C245.651 228.383 246.66 230.274 248.144 231.759C249.627 233.244 251.518 234.255 253.576 234.665C255.635 235.076 257.768 234.866 259.708 234.063C261.647 233.261 263.305 231.901 264.471 230.156C265.637 228.411 266.26 226.359 266.26 224.26C266.257 221.449 265.14 218.753 263.153 216.764C261.166 214.775 258.471 213.655 255.66 213.65Z" fill="#6D61F5"/>
<path d="M153.1 258.44H121.73V289.93H153.1V258.44Z" fill="#6D61F5"/>
<path d="M241.8 258.44H163.76V269.61H241.8V258.44Z" fill="#CCCCCC"/>
<path opacity="0.25" d="M266.01 278.77H163.76V289.94H266.01V278.77Z" fill="#6D61F5"/>
<path d="M152.85 315.66H121.48V347.15H152.85V315.66Z" fill="#6D61F5"/>
<path d="M241.55 315.66H163.51V326.83H241.55V315.66Z" fill="#CCCCCC"/>
<path opacity="0.25" d="M265.76 335.98H163.51V347.15H265.76V335.98Z" fill="#6D61F5"/>
<path opacity="0.25" d="M266.02 361.83H121.48V382.78H266.02V361.83Z" fill="#6D61F5"/>
<path d="M275.42 247H119.42C119.354 247 119.29 246.974 119.243 246.927C119.196 246.88 119.17 246.816 119.17 246.75C119.17 246.684 119.196 246.62 119.243 246.573C119.29 246.526 119.354 246.5 119.42 246.5H275.42C275.486 246.5 275.55 246.526 275.597 246.573C275.644 246.62 275.67 246.684 275.67 246.75C275.67 246.816 275.644 246.88 275.597 246.927C275.55 246.974 275.486 247 275.42 247Z" fill="#CCCCCC"/>
<path d="M275 302.11H119C118.941 302.098 118.888 302.066 118.85 302.02C118.811 301.973 118.791 301.915 118.791 301.855C118.791 301.795 118.811 301.737 118.85 301.69C118.888 301.644 118.941 301.612 119 301.6H275C275.037 301.592 275.076 301.593 275.114 301.603C275.151 301.612 275.186 301.63 275.215 301.654C275.245 301.678 275.269 301.709 275.286 301.744C275.302 301.779 275.311 301.817 275.311 301.855C275.311 301.893 275.302 301.931 275.286 301.966C275.269 302.001 275.245 302.032 275.215 302.056C275.186 302.08 275.151 302.098 275.114 302.107C275.076 302.117 275.037 302.117 275 302.11Z" fill="#CCCCCC"/>
<path d="M147.7 452.79V478.26C147.763 481.216 147.235 484.154 146.147 486.903C145.059 489.652 143.434 492.156 141.366 494.269C139.298 496.381 136.829 498.06 134.103 499.205C131.378 500.351 128.451 500.941 125.495 500.941C122.539 500.941 119.612 500.351 116.887 499.205C114.162 498.06 111.693 496.381 109.625 494.269C107.556 492.156 105.931 489.652 104.843 486.903C103.755 484.154 103.227 481.216 103.29 478.26V452.79H147.7Z" fill="#2F2E41"/>
<path opacity="0.2" d="M147.7 462V478.28C147.693 483.045 146.153 487.682 143.308 491.505C140.463 495.328 136.463 498.135 131.901 499.51C127.338 500.886 122.454 500.757 117.97 499.144C113.486 497.53 109.64 494.517 107 490.55C113.38 491.33 137.41 492.11 147.7 461.98V462Z" fill="black"/>
<path d="M104.68 485.1H102.88C99.6692 485.008 96.6207 483.669 94.3821 481.366C92.1435 479.062 90.8911 475.977 90.8911 472.765C90.8911 469.553 92.1435 466.468 94.3821 464.164C96.6207 461.861 99.6692 460.521 102.88 460.43H103.27H103.6V478.28C103.61 480.461 103.947 482.629 104.6 484.71L104.68 485.1ZM102.88 461.1C99.8347 461.189 96.9442 462.461 94.8217 464.647C92.6993 466.832 91.512 469.758 91.512 472.805C91.512 475.851 92.6993 478.778 94.8217 480.963C96.9442 483.149 99.8347 484.421 102.88 484.51H103.88C103.3 482.491 103.007 480.4 103.01 478.3V461.1H102.88Z" fill="#2F2E41"/>
<path d="M45.7002 504.61H594.86V516.87C594.865 518.724 594.505 520.56 593.799 522.274C593.093 523.988 592.056 525.546 590.747 526.859C589.439 528.172 587.884 529.213 586.171 529.924C584.459 530.634 582.624 531 580.77 531H45.7002V504.61Z" fill="#9EA0A3"/>
<path d="M831.92 499.84H594.42C590.018 499.84 586.45 503.406 586.45 507.805C586.45 512.204 590.018 515.77 594.42 515.77H831.92C836.322 515.77 839.89 512.204 839.89 507.805C839.89 503.406 836.322 499.84 831.92 499.84Z" fill="#9EA0A3"/>
<path d="M835.88 443.35V451.2C835.88 464.1 830.756 476.472 821.634 485.594C812.512 494.715 800.14 499.84 787.24 499.84H770.84C757.94 499.84 745.568 494.715 736.447 485.594C727.325 476.472 722.2 464.1 722.2 451.2V443.35C722.2 442.626 722.488 441.932 723 441.42C723.512 440.908 724.206 440.62 724.93 440.62H833.15C833.702 440.622 834.24 440.79 834.695 441.103C835.149 441.415 835.5 441.856 835.7 442.37C835.816 442.684 835.877 443.015 835.88 443.35Z" fill="#2F2E41"/>
<path opacity="0.2" d="M835.88 443.35V451.2C835.88 464.1 830.756 476.472 821.634 485.594C812.512 494.716 800.14 499.84 787.24 499.84H770.84C760.177 499.846 749.81 496.331 741.35 489.84C757.35 493.19 812.35 499.95 835.7 442.33C835.82 442.657 835.881 443.002 835.88 443.35Z" fill="black"/>
<g opacity="0.2">
<path d="M832.62 449.03H725.97V449.53H832.62V449.03Z" fill="black"/>
</g>
<g opacity="0.2">
<path d="M829.41 454.92H728.54V455.42H829.41V454.92Z" fill="black"/>
</g>
<path d="M734.37 440.62V400.26C734.36 399.094 734.626 397.942 735.148 396.899C735.669 395.856 736.431 394.951 737.37 394.26C739.138 393.04 741.31 392.552 743.43 392.9C743.43 392.9 748.43 392.78 750.96 400.06V340.62C750.973 336.74 752.523 333.023 755.271 330.283C758.018 327.543 761.74 326.003 765.62 326C769.511 326 773.242 327.546 775.993 330.297C778.744 333.048 780.29 336.779 780.29 340.67V440.59L734.37 440.62Z" fill="#6D61F5"/>
<path d="M794.41 350.79C798.152 350.79 801.741 352.277 804.387 354.923C807.033 357.569 808.52 361.158 808.52 364.9V440.49H780.29V364.9C780.29 363.046 780.655 361.211 781.365 359.498C782.075 357.785 783.115 356.23 784.426 354.919C785.738 353.609 787.294 352.57 789.007 351.861C790.72 351.153 792.556 350.789 794.41 350.79Z" fill="#6D61F5"/>
<path opacity="0.2" d="M794.41 350.79C798.152 350.79 801.741 352.277 804.387 354.923C807.033 357.569 808.52 361.158 808.52 364.9V440.49H780.29V364.9C780.29 363.046 780.655 361.211 781.365 359.498C782.075 357.785 783.115 356.23 784.426 354.919C785.738 353.609 787.294 352.57 789.007 351.861C790.72 351.153 792.556 350.789 794.41 350.79Z" fill="black"/>
<path d="M816.37 383.53C817.4 383.53 818.419 383.733 819.37 384.127C820.321 384.521 821.186 385.098 821.914 385.826C822.642 386.554 823.219 387.419 823.613 388.37C824.007 389.321 824.21 390.34 824.21 391.37V440.49H808.52V391.38C808.519 390.349 808.721 389.327 809.115 388.374C809.509 387.421 810.087 386.556 810.816 385.826C811.545 385.097 812.411 384.519 813.364 384.125C814.317 383.731 815.339 383.529 816.37 383.53Z" fill="#6D61F5"/>
<g opacity="0.2">
<path d="M742.78 401.22H742.28V440.11H742.78V401.22Z" fill="black"/>
</g>
<g opacity="0.2">
<path d="M765.86 342.32H765.36V440.68H765.86V342.32Z" fill="black"/>
</g>
<g opacity="0.2">
<path d="M816.43 393.13H815.93V440.68H816.43V393.13Z" fill="black"/>
</g>
<path d="M675.34 96.85C659.749 96.8777 644.515 101.527 631.565 110.209C618.615 118.892 608.529 131.218 602.582 145.631C596.635 160.044 595.094 175.896 598.153 191.184C601.213 206.473 608.735 220.511 619.771 231.525C630.806 242.54 644.859 250.036 660.153 253.066C675.447 256.096 691.296 254.525 705.698 248.551C720.099 242.576 732.406 232.467 741.064 219.5C749.722 206.534 754.342 191.292 754.34 175.7C754.332 165.335 752.282 155.073 748.308 145.5C744.333 135.927 738.511 127.231 731.175 119.909C723.839 112.587 715.132 106.782 705.551 102.825C695.971 98.8686 685.705 96.8382 675.34 96.85ZM674.4 247.4C634.14 247.4 601.51 215.22 601.51 175.51C601.51 135.8 634.14 103.62 674.4 103.62C714.66 103.62 747.3 135.81 747.3 175.51C747.3 215.21 714.66 247.4 674.4 247.4Z" fill="#2F2E41"/>
<path d="M741.23 227.75C753.991 211.4 760.228 190.895 758.731 170.209C757.234 149.523 748.11 130.129 733.127 115.787C718.145 101.445 698.372 93.1768 677.64 92.5844C656.908 91.9919 636.695 99.1178 620.918 112.581C605.141 126.044 594.924 144.885 592.249 165.452C589.573 186.019 594.628 206.846 606.435 223.898C618.242 240.95 635.959 253.011 656.152 257.743C676.346 262.475 697.576 259.541 715.73 249.51L707.87 234.22C693.475 242.318 676.593 244.806 660.473 241.205C644.354 237.603 630.136 228.167 620.557 214.712C610.977 201.257 606.713 184.734 608.584 168.324C610.455 151.914 618.33 136.775 630.693 125.822C643.056 114.87 659.033 108.876 675.549 108.996C692.066 109.117 707.954 115.341 720.156 126.472C732.359 137.604 740.013 152.855 741.645 169.291C743.278 185.727 738.774 202.186 729 215.5L741.23 227.75Z" fill="#6D61F5"/>
<path d="M694.47 218.55H657.21C656.448 218.55 655.83 219.168 655.83 219.93C655.83 220.692 656.448 221.31 657.21 221.31H694.47C695.232 221.31 695.85 220.692 695.85 219.93C695.85 219.168 695.232 218.55 694.47 218.55Z" fill="#2F2E41"/>
<path d="M668 203.62H682.93L675.53 190.57L668 203.62Z" fill="#6D61F5"/>
<path d="M677.67 168.86H673.4V183.66H677.67V168.86Z" fill="#2F2E41"/>
<path d="M705.52 168.99H701.25V183.79H705.52V168.99Z" fill="#2F2E41"/>
<path d="M733.12 168.99H728.85V183.79H733.12V168.99Z" fill="#2F2E41"/>
<path d="M684.07 172.13H682.31V180.54H684.07V172.13Z" fill="#2F2E41"/>
<path d="M689.96 172.13H688.2V180.54H689.96V172.13Z" fill="#2F2E41"/>
<path d="M695.73 172.13H693.97V180.54H695.73V172.13Z" fill="#2F2E41"/>
<path d="M712.05 172H710.29V180.41H712.05V172Z" fill="#2F2E41"/>
<path d="M717.94 172H716.18V180.41H717.94V172Z" fill="#2F2E41"/>
<path d="M723.71 172H721.95V180.41H723.71V172Z" fill="#2F2E41"/>
<path d="M739.52 172.13H737.76V180.54H739.52V172.13Z" fill="#2F2E41"/>
<path d="M677.16 77.15H671.64V94.21H677.16V77.15Z" fill="#2F2E41"/>
<path d="M720.95 277.89H632.37C627.035 277.89 622.71 282.215 622.71 287.55C622.71 292.885 627.035 297.21 632.37 297.21H720.95C726.285 297.21 730.61 292.885 730.61 287.55C730.61 282.215 726.285 277.89 720.95 277.89Z" fill="#CCCCCC"/>
<path d="M619.45 302.17H619.39C619.343 302.154 619.303 302.12 619.281 302.075C619.258 302.03 619.254 301.978 619.27 301.93C630.39 269.3 616.39 245.42 602.7 231.13C596.117 224.383 588.728 218.471 580.7 213.53C577.244 211.364 573.657 209.414 569.96 207.69C551.69 198.74 532.71 180.1 532.52 179.91C532.487 179.875 532.469 179.828 532.469 179.78C532.469 179.732 532.487 179.685 532.52 179.65C532.537 179.631 532.558 179.615 532.581 179.605C532.604 179.594 532.63 179.589 532.655 179.589C532.681 179.589 532.706 179.594 532.729 179.605C532.753 179.615 532.773 179.631 532.79 179.65C532.98 179.83 551.91 198.43 570.12 207.35C573.831 209.072 577.429 211.029 580.89 213.21C588.96 218.156 596.386 224.081 603 230.85C611.76 239.99 617.83 249.94 621 260.43C625 273.55 624.55 287.55 619.62 302.04C619.608 302.076 619.586 302.108 619.555 302.131C619.525 302.154 619.488 302.168 619.45 302.17Z" fill="#2F2E41"/>
<path d="M571.57 94.96H391.29C385.64 94.96 381.06 99.5379 381.06 105.185C381.06 110.832 385.64 115.41 391.29 115.41H571.57C577.22 115.41 581.8 110.832 581.8 105.185C581.8 99.5379 577.22 94.96 571.57 94.96Z" fill="#CCCCCC"/>
<path d="M491.6 145.15L491.1 159.33V164.33C483.81 206.06 455 209.51 455 209.51C428.59 213.76 416.57 197.15 411.47 185.51C409.194 180.366 408.012 174.805 408 169.18V129.42L417.79 128.97C417.79 128.97 421.79 107.64 435.1 97.35C435.1 97.35 429.33 112.28 428.33 127.35H449.78C449.78 127.35 451.54 102.64 448.15 93.98C448.28 94.13 456.57 103.57 458.44 126.22H477.01C477.01 126.22 477.63 112.55 471.11 102.89C471.11 102.89 476.88 107.89 480.39 121.21C480.43 121.19 486.58 139.38 491.6 145.15Z" fill="#F9B499"/>
<path d="M491.6 145.15V146.25L491.53 146.39C482.65 142.87 476.71 131.98 476.71 131.98L458.27 132.48L453.87 122.32L453.37 132.73L425.52 133.11C424.823 130.157 424.758 127.09 425.33 124.11C422.522 126.771 420.675 130.288 420.08 134.11H408V129.38L417.79 128.93C417.79 128.93 421.79 107.6 435.1 97.31C435.1 97.31 429.33 112.24 428.33 127.31H449.78C449.78 127.31 451.54 102.6 448.15 93.94C448.28 94.09 456.57 103.53 458.44 126.18H477.01C477.01 126.18 477.63 112.51 471.11 102.85C471.11 102.85 476.88 107.85 480.39 121.17C480.43 121.19 486.58 139.38 491.6 145.15Z" fill="#F29681"/>
<path d="M605.15 303.24C565.62 236.99 491.15 226.08 491.15 226.08V159.33L491.65 145.15C486.65 139.38 480.48 121.15 480.48 121.15C476.97 107.85 471.2 102.83 471.2 102.83C477.72 112.49 477.1 126.16 477.1 126.16H458.48C456.61 103.51 448.32 94.07 448.19 93.92C451.58 102.58 449.82 127.29 449.82 127.29H428.37C429.37 112.24 435.14 97.29 435.14 97.29C421.84 107.64 417.83 129 417.83 129L408.04 129.45L396.12 130C399.01 104 409.17 92.48 409.17 92.48C394.96 104.61 392.74 124.76 392.41 129.48C392.394 129.764 392.273 130.031 392.07 130.23C391.875 130.437 391.613 130.568 391.33 130.6C391.158 130.619 390.984 130.6 390.819 130.546C390.655 130.492 390.504 130.403 390.377 130.285C390.25 130.168 390.15 130.024 390.083 129.865C390.016 129.705 389.985 129.533 389.99 129.36C390.63 101.22 414.56 84.7 414.56 84.7C430.87 70.64 444.42 76.29 444.42 76.29C432.76 63.74 445.3 55.46 445.3 55.46C442.3 70.27 452.58 74.78 452.58 74.78C509.16 54.08 518.45 131.87 518.45 131.87L520.33 152.32C522.08 170.64 542.2 191.75 554.33 202.91C558.459 206.696 562.825 210.217 567.4 213.45C583.58 224.94 596.14 242.66 596.14 242.66C623.21 275.76 605.15 303.24 605.15 303.24Z" fill="#2F2E41"/>
<path d="M479.37 147.22L494.37 143.06C494.536 143.016 494.708 143.007 494.877 143.035C495.046 143.063 495.207 143.126 495.35 143.22C495.493 143.315 495.614 143.439 495.705 143.583C495.797 143.728 495.856 143.89 495.88 144.06C495.925 144.35 495.863 144.646 495.704 144.893C495.546 145.14 495.302 145.32 495.02 145.4L480.37 149.62L479.37 147.22Z" fill="#6D61F5"/>
<path d="M498.63 171.5C506.252 171.5 512.43 165.236 512.43 157.51C512.43 149.784 506.252 143.52 498.63 143.52C491.009 143.52 484.83 149.784 484.83 157.51C484.83 165.236 491.009 171.5 498.63 171.5Z" fill="#F9B499"/>
<path d="M455.09 251.92C449.921 253.681 445.238 256.631 441.417 260.532C437.596 264.433 434.743 269.176 433.09 274.38C422.09 247.91 436.24 232.03 436.24 232.03C437.405 236.687 439.752 240.964 443.055 244.449C446.357 247.933 450.502 250.506 455.09 251.92Z" fill="#6D61F5"/>
<path opacity="0.4" d="M455.09 251.92C449.921 253.681 445.238 256.631 441.417 260.532C437.596 264.433 434.743 269.176 433.09 274.38C422.09 247.91 436.24 232.03 436.24 232.03C437.405 236.687 439.752 240.964 443.055 244.449C446.357 247.933 450.502 250.506 455.09 251.92Z" fill="white"/>
<path d="M455.85 252.14C455.85 252.14 471.78 267.35 473.53 279.27C473.53 279.27 487.37 267.19 490.8 256.27C490.8 256.27 495.36 239.27 490.34 225.74C490.34 225.7 486.6 256.13 455.85 252.14Z" fill="#6D61F5"/>
<path opacity="0.4" d="M455.85 252.14C455.85 252.14 471.78 267.35 473.53 279.27C473.53 279.27 487.37 267.19 490.8 256.27C490.8 256.27 495.36 239.27 490.34 225.74C490.34 225.7 486.6 256.13 455.85 252.14Z" fill="white"/>
<path d="M610.1 499.84H33.8401C29.4384 499.84 25.8701 503.406 25.8701 507.805C25.8701 512.204 29.4384 515.77 33.8401 515.77H610.1C614.502 515.77 618.07 512.204 618.07 507.805C618.07 503.406 614.502 499.84 610.1 499.84Z" fill="#E1E1E2"/>
<path d="M103.47 199.79V395H58.3099C54.748 395 51.3321 393.585 48.8134 391.066C46.2948 388.548 44.8799 385.132 44.8799 381.57V213.22C44.8799 209.658 46.2948 206.242 48.8134 203.724C51.3321 201.205 54.748 199.79 58.3099 199.79H103.47Z" fill="#6D61F5"/>
<path d="M78.88 239.63H53.91C51.8665 239.63 50.21 241.287 50.21 243.33C50.21 245.373 51.8665 247.03 53.91 247.03H78.88C80.9234 247.03 82.58 245.373 82.58 243.33C82.58 241.287 80.9234 239.63 78.88 239.63Z" fill="white"/>
<path d="M55.8001 216.67C57.4293 216.67 58.7501 215.349 58.7501 213.72C58.7501 212.091 57.4293 210.77 55.8001 210.77C54.1709 210.77 52.8501 212.091 52.8501 213.72C52.8501 215.349 54.1709 216.67 55.8001 216.67Z" fill="white"/>
<path d="M64.9598 216.79C66.589 216.79 67.9098 215.469 67.9098 213.84C67.9098 212.211 66.589 210.89 64.9598 210.89C63.3305 210.89 62.0098 212.211 62.0098 213.84C62.0098 215.469 63.3305 216.79 64.9598 216.79Z" fill="white"/>
<path d="M74.1102 216.92C75.7394 216.92 77.0602 215.599 77.0602 213.97C77.0602 212.341 75.7394 211.02 74.1102 211.02C72.4809 211.02 71.1602 212.341 71.1602 213.97C71.1602 215.599 72.4809 216.92 74.1102 216.92Z" fill="white"/>
<path d="M79.0701 257.06H58.3701C58.3038 257.06 58.2402 257.034 58.1933 256.987C58.1465 256.94 58.1201 256.876 58.1201 256.81C58.1201 256.744 58.1465 256.68 58.1933 256.633C58.2402 256.586 58.3038 256.56 58.3701 256.56H79.0701C79.1364 256.56 79.2 256.586 79.2469 256.633C79.2938 256.68 79.3201 256.744 79.3201 256.81C79.3201 256.876 79.2938 256.94 79.2469 256.987C79.2 257.034 79.1364 257.06 79.0701 257.06Z" fill="white"/>
<path d="M79.0001 267.73H58.3101C58.2438 267.73 58.1802 267.704 58.1333 267.657C58.0864 267.61 58.0601 267.546 58.0601 267.48C58.0601 267.414 58.0864 267.35 58.1333 267.303C58.1802 267.256 58.2438 267.23 58.3101 267.23H79.0001C79.0664 267.23 79.1299 267.256 79.1768 267.303C79.2237 267.35 79.2501 267.414 79.2501 267.48C79.2501 267.546 79.2237 267.61 79.1768 267.657C79.1299 267.704 79.0664 267.73 79.0001 267.73Z" fill="white"/>
<path d="M79.0001 278H58.3101C58.2438 278 58.1802 277.974 58.1333 277.927C58.0864 277.88 58.0601 277.816 58.0601 277.75C58.0601 277.684 58.0864 277.62 58.1333 277.573C58.1802 277.526 58.2438 277.5 58.3101 277.5H79.0001C79.0664 277.5 79.1299 277.526 79.1768 277.573C79.2237 277.62 79.2501 277.684 79.2501 277.75C79.2501 277.816 79.2237 277.88 79.1768 277.927C79.1299 277.974 79.0664 278 79.0001 278Z" fill="white"/>
<g opacity="0.2">
<path d="M794.79 364.4H794.66V440.31H794.79V364.4Z" fill="black"/>
</g>
<path d="M645.67 91.2L658.22 101.61L655.46 121.31L675.22 109.02L693.6 121.31L689.71 101.87L703.13 91.2H645.67Z" fill="#6D61F5"/>
<path opacity="0.2" d="M645.67 91.2L658.22 101.61L655.46 121.31L675.22 109.02L693.6 121.31L689.71 101.87L703.13 91.2H645.67Z" fill="black"/>
<path opacity="0.32" d="M431.789 152.05C431.849 142.424 424.063 134.572 414.398 134.511C404.734 134.45 396.85 142.204 396.789 151.83C396.729 161.457 404.515 169.309 414.179 169.37C423.844 169.431 431.728 161.677 431.789 152.05Z" fill="white"/>
<path opacity="0.32" d="M478.906 152.039C478.966 142.573 471.314 134.851 461.814 134.792C452.315 134.732 444.567 142.357 444.507 151.823C444.448 161.289 452.1 169.011 461.599 169.071C471.098 169.131 478.847 161.505 478.906 152.039Z" fill="white"/>
<path d="M461.74 132.86C457.132 132.854 452.677 134.518 449.202 137.544C445.727 140.571 443.467 144.754 442.84 149.32C438.84 146.06 433.84 148.65 433.2 149.03C432.439 144.181 429.83 139.814 425.92 136.846C422.011 133.877 417.104 132.537 412.228 133.106C407.353 133.675 402.886 136.109 399.765 139.897C396.644 143.686 395.111 148.536 395.486 153.43C395.861 158.325 398.116 162.884 401.778 166.153C405.44 169.421 410.225 171.146 415.131 170.965C420.036 170.784 424.681 168.711 428.093 165.182C431.504 161.652 433.417 156.939 433.43 152.03C438.08 148.2 442.72 151.9 442.72 151.9C442.706 155.675 443.813 159.368 445.9 162.514C447.987 165.659 450.96 168.114 454.444 169.568C457.927 171.022 461.764 171.41 465.467 170.682C469.171 169.954 472.576 168.143 475.25 165.479C477.924 162.815 479.747 159.417 480.488 155.716C481.23 152.015 480.856 148.177 479.415 144.688C477.974 141.2 475.53 138.217 472.392 136.119C469.255 134.02 465.565 132.9 461.79 132.9L461.74 132.86ZM414.31 168.61C411.023 168.598 407.813 167.612 405.085 165.777C402.358 163.941 400.236 161.339 398.987 158.298C397.738 155.257 397.418 151.914 398.069 148.692C398.719 145.469 400.309 142.512 402.639 140.193C404.969 137.874 407.935 136.297 411.16 135.663C414.386 135.028 417.727 135.364 420.762 136.627C423.797 137.891 426.389 140.026 428.211 142.762C430.034 145.498 431.004 148.713 431 152C430.995 154.187 430.559 156.351 429.717 158.369C428.876 160.387 427.645 162.219 426.095 163.762C424.545 165.304 422.707 166.526 420.685 167.358C418.663 168.19 416.497 168.615 414.31 168.61ZM461.74 168.49C458.454 168.478 455.244 167.493 452.517 165.658C449.791 163.824 447.668 161.222 446.419 158.183C445.169 155.143 444.849 151.801 445.497 148.579C446.145 145.357 447.734 142.4 450.062 140.08C452.39 137.76 455.354 136.182 458.578 135.545C461.802 134.908 465.143 135.241 468.178 136.502C471.213 137.762 473.807 139.894 475.632 142.627C477.456 145.361 478.43 148.573 478.43 151.86C478.426 154.048 477.991 156.213 477.151 158.233C476.31 160.253 475.079 162.087 473.529 163.632C471.98 165.176 470.141 166.4 468.118 167.233C466.095 168.067 463.928 168.494 461.74 168.49Z" fill="#6D61F5"/>
<path opacity="0.2" d="M579.66 411.11C577.087 410.57 574.6 409.679 572.27 408.46C565.402 404.719 559.992 398.778 556.91 391.59L547.81 358.32L548.94 397.08C549.31 426.82 520.33 436.23 520.33 436.23L457.22 458.06C480.43 476 467 500.47 467 500.47H487.78C501.91 470.1 479.54 452.93 479.54 452.93C512.92 438.5 566.37 426.2 566.37 426.2C595.22 418.2 607.77 424.32 607.77 424.32C599.473 417.924 589.88 413.416 579.66 411.11Z" fill="black"/>
<path d="M482.13 493.69C483.826 493.69 485.2 492.316 485.2 490.62C485.2 488.925 483.826 487.55 482.13 487.55C480.435 487.55 479.06 488.925 479.06 490.62C479.06 492.316 480.435 493.69 482.13 493.69Z" fill="#2F2E41"/>
</g>
<defs>
<clipPath id="clip0_154_17">
<rect width="866" height="595" fill="white"/>
</clipPath>
</defs>
</svg>
